<?xml version="1.0" encoding="utf-8"?>
<!-- Generator: Adobe Illustrator 19.1.0, SVG Export Plug-In . SVG Version: 6.00 Build 0)  -->
<svg version="1.1" id="Layer_1" xmlns="http://www.w3.org/2000/svg" xmlns:xlink="http://www.w3.org/1999/xlink" x="0px" y="0px"
	 viewBox="0 0 22.3 22.2" style="enable-background:new 0 0 22.3 22.2;" xml:space="preserve">
<style type="text/css">
	.st0{fill:#D8AA59;}
	.st1{clip-path:url(#SVGID_2_);}
	.st2{fill:#CB9D58;}
	.st3{fill:#D3A65A;}
	.st4{fill:#4E3413;}
</style>
<g>
	<path class="st0" d="M11.2,0.4c0.1,0.2,1.1-0.1,1.5,0c0.3,0.1,1.4-0.2,1.9-0.1C15,0.4,15,0.5,15.2,0.5s0.7,0.2,1,0.6
		c0,0,0.6,0.3,0.7,0.3c0.1,0,1.1,0.3,1.3,0.5c0.2,0.1,2.5,2.6,3,4.2c0,0,0.7,1,0.8,1.6c0.1,0.6,0.1,2.1,0.1,2.3
		c0,0.2,0.1,0.7,0.1,0.9s-0.1,0.5-0.1,0.7c0,0.2,0.4,2.7-0.2,3.9c0,0-0.4,1.3-0.9,1.8c0,0-0.9,1.6-2.5,2.6c-0.4,0.3-1.5,2.4-5.2,2.1
		c0,0-3.3,1.4-7.2-1.8c0,0-1.1-0.4-1.9-1.4c-0.8-1-1.2-1.6-1.3-1.9c0,0-1.5-1.1-2.1-2.2s-1.9-5.8,0.4-8c0,0,0.3-1.6,1.2-1.9
		c0,0-0.2-1.1,0.9-2.3s2.3-1.8,3.2-2.1S10.7-0.3,11.2,0.4z"/>
	<g>
		<defs>
			<path id="SVGID_1_" d="M11.2,0.4c0.1,0.2,1.1-0.1,1.5,0c0.3,0.1,1.4-0.2,1.9-0.1C15,0.4,15,0.5,15.2,0.5s0.7,0.2,1,0.6
				c0,0,0.6,0.3,0.7,0.3c0.1,0,1.1,0.3,1.3,0.5c0.2,0.1,2.5,2.6,3,4.2c0,0,0.7,1,0.8,1.6c0.1,0.6,0.1,2.1,0.1,2.3
				c0,0.2,0.1,0.7,0.1,0.9s-0.1,0.5-0.1,0.7c0,0.2,0.4,2.7-0.2,3.9c0,0-0.4,1.3-0.9,1.8c0,0-0.9,1.6-2.5,2.6
				c-0.4,0.3-1.5,2.4-5.2,2.1c0,0-3.3,1.4-7.2-1.8c0,0-1.1-0.4-1.9-1.4c-0.8-1-1.2-1.6-1.3-1.9c0,0-1.5-1.1-2.1-2.2s-1.9-5.8,0.4-8
				c0,0,0.3-1.6,1.2-1.9c0,0-0.2-1.1,0.9-2.3s2.3-1.8,3.2-2.1S10.7-0.3,11.2,0.4z"/>
		</defs>
		<clipPath id="SVGID_2_">
			<use xlink:href="#SVGID_1_"  style="overflow:visible;"/>
		</clipPath>
		<g class="st1">
			<path class="st2" d="M17.1,0.5l6.4,4.2c0,0,2.5,7.9,2.4,8.2S22.5,22,22.5,22L9.5,23.9c0,0-7.7-5.4-3.1-3.8c4.5,1.6,8-1.6,9.2-2.1
				s0.7-2.2,0.4-3.3c-0.3-1.1-2.9,0.1-4.2-1.4s1.3-3.8,1.6-4.6s3.1-1.2,3.9-1.9c0.8-0.7-1.8-3.6-1.7-4.5c0.1-0.9,0.7-1.3,0.7-1.3
				L17.1,0.5z"/>
			<path class="st3" d="M15.5,2.4c0,0-5-1.4-7,1.3s1.9,1.2,3.1,1.1S8.6,7.9,7.1,9.6s-1.4,5.5,0.5,6.3s2.9,4.1,5,4
				c2-0.2,6.2-4.8,6.2-4.8L19,6.8L15.5,2.4z"/>
		</g>
	</g>
	<g>
		<path class="st4" d="M13.2,1.5c0,0,0.6,0.9,1,0.9c0.4,0,0.6,0,1.1,0.1c0.5,0.1,0-1.5-0.7-1.8c-0.7-0.2-1,0.3-1,0.3S14,1.1,14,1.2
			S13.2,1.5,13.2,1.5z"/>
		<path class="st4" d="M6.8,4.4c0,0-1.3,0-1.9,1.5c0,0,0.6,1.4,1.9,0.5C8.1,5.5,6.8,4.4,6.8,4.4z"/>
		<path class="st4" d="M2.6,4.7c0,0-0.8,0.8-0.2,1.5C2.4,6.1,2.7,6.1,2.6,4.7z"/>
		<path class="st4" d="M11.2,1.4c0,0-0.6,0.3-1,0.2c-0.4-0.1-0.9,0.2-1,0.5c-0.1,0.3,1,0.2,1.1-0.2c0.1-0.3,0.8-0.5,1.3-0.1
			L11.2,1.4z"/>
		<path class="st4" d="M10.2,7.2c0,0,1.2,0.5,1.4,0.3c0.1-0.2-0.8-2.7-2.2-1.1c0,0,0.7-0.5,0.7-0.2c0,0.2-0.8,0.2-0.9,0.4
			C9.1,6.8,10,7.1,10.2,7.2z"/>
		<path class="st4" d="M14.7,5c0,0-0.3,0.5-0.7,0.4c-0.4-0.1,0.2,1.6,0.9,1.9C15.5,7.7,17.1,5,14.7,5z"/>
		<path class="st4" d="M18.4,4c0,0-0.6,1.2-1.2,1.5s0.9,0.2,1.1,0.3c0.2,0.1,0.1,0.5,0.3,0.5s0.5-1.2,0.3-1.7
			c-0.2-0.5,0.4,0.2,0.4,0.2S19.4,4,18.4,4z"/>
		<path class="st4" d="M18.4,8.6c-0.1,0.3,0.3,0.5,0.2,0.7c-0.1,0.2-0.3,0.4-0.2,0.5c0,0.1,0.6,0.3,0.8,0.1c0.3-0.2,0.2,0.2,0.1,0.4
			c0,0.2,0.5-0.6,0-1.3C18.9,8.3,18.4,8.4,18.4,8.6z"/>
		<path class="st4" d="M9.4,7.9c0,0.2,0.6,0.1,0.7,0.3C10.2,8.5,10,10,8.9,8.6C7.9,7.1,9.3,7,9.4,7.9z"/>
		<path class="st4" d="M7.8,9c0,0-0.2,0.4-0.5,0.4c-0.2,0,0.9,0.2,1,0.4c0,0-0.3-0.6-0.1-0.7C8.3,9.2,7.9,9.3,7.8,9z"/>
		<path class="st4" d="M3.2,11.6c0,0,1-0.3,1.4-0.2c0,0,0.1-1.1-0.8-1.1S3.4,11.2,3.2,11.6z"/>
		<path class="st4" d="M13.5,11.5c-0.2,0.1,0.2,0.6,0.1,0.8c-0.1,0.2-0.3,0.1-0.5,0.3c-0.2,0.2,1.3,2.3,2.1,0.9
			C16,12.1,14.8,11.1,13.5,11.5z"/>
		<path class="st4" d="M9.9,13.3c0.2,0.2,1.2,0.3,1.5-0.2c0.3-0.5-0.1-1.3-0.5-1.3c-0.4,0-0.5-0.5-0.9-0.3
			C9.7,11.7,9.1,12.7,9.9,13.3z"/>
		<path class="st4" d="M17.6,13.3c0.1-0.1,0.4-0.1,0.7-0.2c0.3-0.1,0.9-0.5,1.2-0.4c0.3,0.1-0.1,0.9-0.1,1.3s-0.1-0.2-0.3-0.2
			c-0.2,0-0.3,0.5-0.8,0.5S17.6,13.3,17.6,13.3z"/>
		<path class="st4" d="M4.3,18.7c0,0,1.5-0.3,1.6-0.7c0,0,0.1,0.6,0.4,0.6c0.3,0-0.2,1.2-0.7,1.2C5.6,19.8,4.3,18.9,4.3,18.7z"/>
		<path class="st4" d="M9.3,15.8L8.2,16l0,0.2c0,0,0.9-0.1,1.1,0L9.3,15.8z"/>
		<path class="st4" d="M7.6,17.2c0,0,0.6,0.1,0.7-0.3c0,0,0.3-0.1,0.5,0c0.2,0.1,0.8,0,0.6,0.5c-0.2,0.5-0.4,0.7-0.7,0.7
			c-0.3,0-1.5-0.2-1.1-0.5C7.6,17.7,7.7,17.5,7.6,17.2z"/>
		<path class="st4" d="M14.3,16.7c0,0,0.4,0.3,0.8,0s0.8,0.9,0.5,1.3c-0.3,0.3,0.5,0.7-0.3,1c-0.7,0.3-0.8-0.2-0.8-0.2
			s-1.2-0.3-0.8-1S14.4,17.1,14.3,16.7z"/>
	</g>
</g>
</svg>
