<?xml version="1.0" encoding="utf-8"?>
<!-- Generator: Adobe Illustrator 19.1.0, SVG Export Plug-In . SVG Version: 6.00 Build 0)  -->
<svg version="1.1" id="Layer_1" xmlns="http://www.w3.org/2000/svg" xmlns:xlink="http://www.w3.org/1999/xlink" x="0px" y="0px"
	 viewBox="0 0 45.5 23.3" style="enable-background:new 0 0 45.5 23.3;" xml:space="preserve">
<style type="text/css">
	.st0{clip-path:url(#SVGID_2_);}
	.st1{fill:#500E42;}
	.st2{fill:#975690;}
	.st3{fill:#460735;}
	.st4{fill:#4C093C;}
	.st5{fill:#55134B;}
	.st6{fill:#926B40;}
	.st7{fill:#D8AA59;}
	.st8{clip-path:url(#SVGID_4_);}
	.st9{fill:#CB9D58;}
	.st10{fill:#D3A65A;}
	.st11{fill:#4E3413;}
</style>
<g>
	<defs>
		<path id="SVGID_1_" d="M11.8,22.6c0,0,11.2,1.8,9.6-11.6c-0.6-5.4-5.9-8.7-12.3-8.2c-3.3,0.3-9.7,3-9.2,11S8.3,24.3,11.8,22.6z"/>
	</defs>
	<clipPath id="SVGID_2_">
		<use xlink:href="#SVGID_1_"  style="overflow:visible;"/>
	</clipPath>
	<g class="st0">
		<path class="st1" d="M11.8,22.6c0,0,11.2,1.8,9.6-11.6c-0.6-5.4-5.9-8.7-12.3-8.2c-3.3,0.3-9.7,3-9.2,11S8.3,24.3,11.8,22.6z"/>
		<path class="st2" d="M14.9,6c0,0-0.5,0.8-0.2,1.9c0.2,1.1,1.3,2.6,2.2,2.6c0.8,0,1.9-1.5,0.9-2.5C16.8,6.8,16,6.9,14.9,6z"/>
		<path class="st3" d="M11,7c0,0-0.2-1.3,0-2c0,0-0.7-0.4-1.9,0.5C9.2,5.5,10.5,6.3,11,7z"/>
		<path class="st4" d="M12.4,18.1c0,0-0.1-8.4-1.3-11.1c0,0-2-2.7-5.1-2.6c0,0-4.8,0.9-5.1,6S7.8,23,12.4,18.1z"/>
		<path class="st5" d="M6.9,4.4c0,0-3.9,7.9,5.1,7c0,0-0.2-3.2-1.2-4.5C9.9,5.6,11,7,11,7S8.7,4.5,6.9,4.4z"/>
		<path class="st4" d="M12,11.5c0,0,8.9,1.1,5.7-6.6l6.1,0.6l1,5.8l-1.6,3.6l-1.3,2.4l-8,2.4l-1.6-1.4C12.4,18.1,12.2,12.9,12,11.5z
			"/>
		<path class="st4" d="M11.6,3c0,0,1.4,0.8,0.9,1.6S11,7.3,12.8,7.6s1.4-1.6,2-2s3.6,0,3.7,1.8c0,1.8,0.8-4.6,0.8-4.6L14.2,2L11.6,3
			z"/>
		<path class="st3" d="M12,2.9c0,0-8.9,0.6-10.8,6.3s7.2,12,11.1,8.9c0,0,6.1,3.2,9.3-5.6l2.4,6.3l-6.7,5.9L4,25.6l-8.2-7.2
			l3.9-10.1l4.3-6l9.2,0L12,2.9z"/>
	</g>
</g>
<path class="st6" d="M10.5,6.3c0,0,0.2-0.1,0.2-0.4c0,0-1.1-2.4-1.6-4.5c0,0,0.8-1,0.4-1.2C9.2-0.1,8.4-0.1,8.4,0.8s1.2,3.8,1.3,5.1
	C9.7,5.9,10.3,6.5,10.5,6.3z"/>
<g>
	<path class="st7" d="M34.3,1.5c0.1,0.2,1.1-0.1,1.5,0c0.3,0.1,1.4-0.2,1.9-0.1c0.5,0.1,0.6,0.2,0.7,0.2s0.7,0.2,1,0.6
		c0,0,0.6,0.3,0.7,0.3c0.1,0,1.1,0.3,1.3,0.5c0.2,0.1,2.5,2.6,3,4.2c0,0,0.7,1,0.8,1.6s0.1,2.1,0.1,2.3s0.1,0.7,0.1,0.9
		c0,0.2-0.1,0.5-0.1,0.7c0,0.2,0.4,2.7-0.2,3.9c0,0-0.4,1.3-0.9,1.8c0,0-0.9,1.6-2.5,2.6c-0.4,0.3-1.5,2.4-5.2,2.1
		c0,0-3.3,1.4-7.2-1.8c0,0-1.1-0.4-1.9-1.4s-1.2-1.6-1.3-1.9c0,0-1.5-1.1-2.1-2.2c-0.6-1.1-1.9-5.8,0.4-8c0,0,0.3-1.6,1.2-1.9
		c0,0-0.2-1.1,0.9-2.3s2.3-1.8,3.2-2.1C30.8,1.1,33.9,0.8,34.3,1.5z"/>
	<g>
		<defs>
			<path id="SVGID_3_" d="M34.3,1.5c0.1,0.2,1.1-0.1,1.5,0c0.3,0.1,1.4-0.2,1.9-0.1c0.5,0.1,0.6,0.2,0.7,0.2s0.7,0.2,1,0.6
				c0,0,0.6,0.3,0.7,0.3c0.1,0,1.1,0.3,1.3,0.5c0.2,0.1,2.5,2.6,3,4.2c0,0,0.7,1,0.8,1.6s0.1,2.1,0.1,2.3s0.1,0.7,0.1,0.9
				c0,0.2-0.1,0.5-0.1,0.7c0,0.2,0.4,2.7-0.2,3.9c0,0-0.4,1.3-0.9,1.8c0,0-0.9,1.6-2.5,2.6c-0.4,0.3-1.5,2.4-5.2,2.1
				c0,0-3.3,1.4-7.2-1.8c0,0-1.1-0.4-1.9-1.4s-1.2-1.6-1.3-1.9c0,0-1.5-1.1-2.1-2.2c-0.6-1.1-1.9-5.8,0.4-8c0,0,0.3-1.6,1.2-1.9
				c0,0-0.2-1.1,0.9-2.3s2.3-1.8,3.2-2.1C30.8,1.1,33.9,0.8,34.3,1.5z"/>
		</defs>
		<clipPath id="SVGID_4_">
			<use xlink:href="#SVGID_3_"  style="overflow:visible;"/>
		</clipPath>
		<g class="st8">
			<path class="st9" d="M40.3,1.6l6.4,4.2c0,0,2.5,7.9,2.4,8.2C49,14.2,45.6,23,45.6,23L32.7,25c0,0-7.7-5.4-3.1-3.8
				c4.5,1.6,8-1.6,9.2-2.1c1.1-0.6,0.7-2.2,0.4-3.3c-0.3-1.1-2.9,0.1-4.2-1.4s1.3-3.8,1.6-4.6s3.1-1.2,3.9-1.9
				c0.8-0.7-1.8-3.6-1.7-4.5c0.1-0.9,0.7-1.3,0.7-1.3L40.3,1.6z"/>
			<path class="st10" d="M38.6,3.5c0,0-5-1.4-7,1.3s1.9,1.2,3.1,1.1c1.1-0.1-2.9,3.1-4.5,4.8c-1.6,1.7-1.4,5.5,0.5,6.3
				c1.8,0.8,2.9,4.1,5,4c2-0.2,6.2-4.8,6.2-4.8l0.3-8.3L38.6,3.5z"/>
		</g>
	</g>
	<g>
		<path class="st11" d="M36.4,2.6c0,0,0.6,0.9,1,0.9c0.4,0,0.6,0,1.1,0.1c0.5,0.1,0-1.5-0.7-1.8c-0.7-0.2-1,0.3-1,0.3
			s0.4-0.1,0.4,0.1S36.4,2.6,36.4,2.6z"/>
		<path class="st11" d="M30,5.5c0,0-1.3,0-1.9,1.5c0,0,0.6,1.4,1.9,0.5C31.3,6.6,30,5.5,30,5.5z"/>
		<path class="st11" d="M25.7,5.8c0,0-0.8,0.8-0.2,1.5C25.5,7.2,25.9,7.2,25.7,5.8z"/>
		<path class="st11" d="M34.4,2.5c0,0-0.6,0.3-1,0.2c-0.4-0.1-0.9,0.2-1,0.5c-0.1,0.3,1,0.2,1.1-0.2c0.1-0.3,0.8-0.5,1.3-0.1
			L34.4,2.5z"/>
		<path class="st11" d="M33.4,8.3c0,0,1.2,0.5,1.4,0.3c0.1-0.2-0.8-2.7-2.2-1.1c0,0,0.7-0.5,0.7-0.2c0,0.2-0.8,0.2-0.9,0.4
			C32.2,7.9,33.1,8.2,33.4,8.3z"/>
		<path class="st11" d="M37.8,6c0,0-0.3,0.5-0.7,0.4c-0.4-0.1,0.2,1.6,0.9,1.9C38.7,8.8,40.3,6,37.8,6z"/>
		<path class="st11" d="M41.6,5.1c0,0-0.6,1.2-1.2,1.5c-0.6,0.3,0.9,0.2,1.1,0.3c0.2,0.1,0.1,0.5,0.3,0.5c0.2,0,0.5-1.2,0.3-1.7
			c-0.2-0.5,0.4,0.2,0.4,0.2S42.5,5.1,41.6,5.1z"/>
		<path class="st11" d="M41.6,9.7c-0.1,0.3,0.3,0.5,0.2,0.7c-0.1,0.2-0.3,0.4-0.2,0.5s0.6,0.3,0.8,0.1c0.3-0.2,0.2,0.2,0.1,0.4
			c0,0.2,0.5-0.6,0-1.3C42.1,9.3,41.6,9.5,41.6,9.7z"/>
		<path class="st11" d="M32.6,9c0,0.2,0.6,0.1,0.7,0.3c0.1,0.3-0.2,1.8-1.2,0.3C31.1,8.2,32.5,8.1,32.6,9z"/>
		<path class="st11" d="M31,10.1c0,0-0.2,0.4-0.5,0.4c-0.2,0,0.9,0.2,1,0.4c0,0-0.3-0.6-0.1-0.7C31.5,10.3,31.1,10.4,31,10.1z"/>
		<path class="st11" d="M26.3,12.7c0,0,1-0.3,1.4-0.2c0,0,0.1-1.1-0.8-1.1C26,11.4,26.6,12.3,26.3,12.7z"/>
		<path class="st11" d="M36.7,12.6c-0.2,0.1,0.2,0.6,0.1,0.8c-0.1,0.2-0.3,0.1-0.5,0.3c-0.2,0.2,1.3,2.3,2.1,0.9S38,12.2,36.7,12.6z
			"/>
		<path class="st11" d="M33.1,14.4c0.2,0.2,1.2,0.3,1.5-0.2c0.3-0.5-0.1-1.3-0.5-1.3c-0.4,0-0.5-0.5-0.9-0.3
			C32.8,12.8,32.2,13.8,33.1,14.4z"/>
		<path class="st11" d="M40.7,14.4c0.1-0.1,0.4-0.1,0.7-0.2c0.3-0.1,0.9-0.5,1.2-0.4c0.3,0.1-0.1,0.9-0.1,1.3s-0.1-0.2-0.3-0.2
			c-0.2,0-0.3,0.5-0.8,0.5C41,15.4,40.7,14.4,40.7,14.4z"/>
		<path class="st11" d="M27.5,19.8c0,0,1.5-0.3,1.6-0.7c0,0,0.1,0.6,0.4,0.6s-0.2,1.2-0.7,1.2C28.7,20.9,27.5,20,27.5,19.8z"/>
		<path class="st11" d="M32.5,16.9l-1.1,0.1l0,0.2c0,0,0.9-0.1,1.1,0L32.5,16.9z"/>
		<path class="st11" d="M30.7,18.3c0,0,0.6,0.1,0.7-0.3c0,0,0.3-0.1,0.5,0c0.2,0.1,0.8,0,0.6,0.5c-0.2,0.5-0.4,0.7-0.7,0.7
			c-0.3,0-1.5-0.2-1.1-0.5C30.7,18.8,30.9,18.6,30.7,18.3z"/>
		<path class="st11" d="M37.5,17.8c0,0,0.4,0.3,0.8,0c0.3-0.3,0.8,0.9,0.5,1.3s0.5,0.7-0.3,1c-0.7,0.3-0.8-0.2-0.8-0.2
			s-1.2-0.3-0.8-1S37.5,18.2,37.5,17.8z"/>
	</g>
</g>
</svg>
