<?xml version="1.0" encoding="utf-8"?>
<!-- Generator: Adobe Illustrator 19.1.0, SVG Export Plug-In . SVG Version: 6.00 Build 0)  -->
<svg version="1.1" id="Layer_1" xmlns="http://www.w3.org/2000/svg" xmlns:xlink="http://www.w3.org/1999/xlink" x="0px" y="0px"
	 viewBox="0 0 21.6 23.1" style="enable-background:new 0 0 21.6 23.1;" xml:space="preserve">
<style type="text/css">
	.st0{clip-path:url(#SVGID_2_);}
	.st1{fill:#500E42;}
	.st2{fill:#975690;}
	.st3{fill:#460735;}
	.st4{fill:#4C093C;}
	.st5{fill:#55134B;}
	.st6{fill:#926B40;}
</style>
<g>
	<defs>
		<path id="SVGID_1_" d="M11.8,22.6c0,0,11.2,1.8,9.6-11.6c-0.6-5.4-5.9-8.7-12.3-8.2c-3.3,0.3-9.7,3-9.2,11S8.3,24.3,11.8,22.6z"/>
	</defs>
	<clipPath id="SVGID_2_">
		<use xlink:href="#SVGID_1_"  style="overflow:visible;"/>
	</clipPath>
	<g class="st0">
		<path class="st1" d="M11.8,22.6c0,0,11.2,1.8,9.6-11.6c-0.6-5.4-5.9-8.7-12.3-8.2c-3.3,0.3-9.7,3-9.2,11S8.3,24.3,11.8,22.6z"/>
		<path class="st2" d="M14.9,6c0,0-0.5,0.8-0.2,1.9c0.2,1.1,1.3,2.6,2.2,2.6c0.8,0,1.9-1.5,0.9-2.5C16.8,6.8,16,6.9,14.9,6z"/>
		<path class="st3" d="M11,7c0,0-0.2-1.3,0-2c0,0-0.7-0.4-1.9,0.5C9.2,5.5,10.5,6.3,11,7z"/>
		<path class="st4" d="M12.4,18.1c0,0-0.1-8.4-1.3-11.1c0,0-2-2.7-5.1-2.6c0,0-4.8,0.9-5.1,6S7.8,23,12.4,18.1z"/>
		<path class="st5" d="M6.9,4.4c0,0-3.9,7.9,5.1,7c0,0-0.2-3.2-1.2-4.5C9.9,5.6,11,7,11,7S8.7,4.5,6.9,4.4z"/>
		<path class="st4" d="M12,11.5c0,0,8.9,1.1,5.7-6.6l6.1,0.6l1,5.8l-1.6,3.6l-1.3,2.4l-8,2.4l-1.6-1.4C12.4,18.1,12.2,12.9,12,11.5z
			"/>
		<path class="st4" d="M11.6,3c0,0,1.4,0.8,0.9,1.6S11,7.3,12.8,7.6s1.4-1.6,2-2s3.6,0,3.7,1.8c0,1.8,0.8-4.6,0.8-4.6L14.2,2L11.6,3
			z"/>
		<path class="st3" d="M12,2.9c0,0-8.9,0.6-10.8,6.3s7.2,12,11.1,8.9c0,0,6.1,3.2,9.3-5.6l2.4,6.3l-6.7,5.9L4,25.6l-8.2-7.2
			l3.9-10.1l4.3-6l9.2,0L12,2.9z"/>
	</g>
</g>
<path class="st6" d="M10.5,6.3c0,0,0.2-0.1,0.2-0.4c0,0-1.1-2.4-1.6-4.5c0,0,0.8-1,0.4-1.2C9.2-0.1,8.4-0.1,8.4,0.8s1.2,3.8,1.3,5.1
	C9.7,5.9,10.3,6.5,10.5,6.3z"/>
</svg>
