<?xml version="1.0" encoding="utf-8"?>
<!-- Generator: Adobe Illustrator 19.1.0, SVG Export Plug-In . SVG Version: 6.00 Build 0)  -->
<svg version="1.1" id="Layer_1" xmlns="http://www.w3.org/2000/svg" xmlns:xlink="http://www.w3.org/1999/xlink" x="0px" y="0px"
	 viewBox="0 0 716.7 355" style="enable-background:new 0 0 716.7 355;" xml:space="preserve">
<style type="text/css">
	.st0{fill:#4C093C;}
	.st1{fill:#FFFFFF;}
	.st2{fill:none;stroke:#4C093C;stroke-width:2;stroke-linecap:round;stroke-linejoin:round;stroke-miterlimit:10;}
	.st3{fill:none;stroke:#000000;stroke-width:2;stroke-linecap:round;stroke-linejoin:round;stroke-miterlimit:10;}
</style>
<g>
	<path class="st0" d="M70.7,299.4c3.2,0.2,6,0.3,9.4,0.5c0,3.5,0,6.9,0,10.2c0.3,0.1,0.7,0.2,1,0.3c2-3.3,4-6.7,6.2-10.3
		c4.2,5.1,7.1,10.2,5.6,17.1c4.1,0,7.8,0,11.9,0c0.2-1.7,0.3-3.5,0.5-5.6c1.4-0.3,2.8-0.6,4.3-0.9c0.2-1.6,0.4-3.1,0.6-5.2
		c3.4,0,6.8,0,10.6,0c0.2-3.7,0.3-6.8,0.5-10.3c6.3,0,12.5,0,19.2,0c0,7.3,0,14.4,0,22c3,0,5.5,0,8.5,0c0-3.5,0-6.9,0-10.4
		c2.3-2.7,4.4-5.2,6.5-7.8c6.7,0,13.3,0,20.1,0c0.2,1.7,0.5,3.2,0.7,5.2c3.2,0.1,6.4,0.3,10,0.4c0.4,0.7,0.8,1.6,1.6,3
		c0-6.8,0-13,0-18.6c4.4-7.5,1-15.2,2.2-21.1c1.4-3.4,2.4-5.8,3.6-8.9c1-0.1,2.7-0.4,4.7-0.7c0.5,2.1,0.8,3.9,1.2,5.7
		c0.3,0,0.6,0.1,0.8,0.1c0.5-1.2,0.9-2.5,1.3-3.5c3.6-2.2,7.1-4.4,10.6-6.6c1.6,2.1,2.6,3.4,3.6,4.7c3.3,0.5,6.6,0.9,10.1,1.4
		c0,14.5,0,28.1,0,41.8c0.2,0,0.3,0,0.5,0c0-9.4,0-18.9,0-28.3c0.3,0.1,0.5,0.2,0.8,0.3c1.1-2.2,2.2-4.4,3.7-7.6
		c1.4-1,3.7-2.6,5.4-3.8c1.2-2.8,2.1-4.9,3-7.1c0.2,0.1,0.3,0.1,0.5,0.2c0-2,0-4,0-6c0.2,0,0.5,0.1,0.7,0.1c0.5-2.6,1.4-5.2,1.5-7.9
		c0.3-17.8,0.5-35.7,0.6-53.5c0.1-10.3,0-20.5,0-30.8c0.3-0.1,0.7-0.1,1-0.2c1-0.8,2-1.6,3-2.5c0-0.9,0-1.7,0-2.5
		c-0.1-4.4,1.1-8.6,4.6-11.3c3.1-2.5,3.9-5.6,4.4-9.1c1.8-14.3,3.5-28.6,5.2-42.6c0,4.1,0.1,8.6,0,13c-0.4,11.3,2.7,22.2,4.6,33.2
		c0.5,3.1,3.2,5.7,4.9,8.6c0.4-0.2,0.8-0.4,1.2-0.6c0.6,3.4,1.1,6.8,1.8,10.8c0.4,0.2,1.3,0.8,2.4,1.5c0.1,0.7,0.2,1.5,0.2,2.3
		c0.5,31.5,0.9,63.1,1.4,94.6c0,1.2,0,2.3,0,3.6c1.5,0.9,2.9,1.7,4.1,2.5c0.4,1.8,0.7,3.5,1,5.1c0.4,0,0.9-0.1,1.3-0.1
		c0-23.9,0-47.9,0-72.1c1.9-0.2,3.1-0.2,4.8-0.4c0,6.8,0,13.3,0,19.8c1.1,0.8,2,1.4,3.1,2.1c0.1,2,0.3,4.1,0.4,6.5
		c1.2,0.4,2.4,0.8,3.7,1.3c0.1,3.1,0.3,6,0.4,8.9c0.4,0.2,0.8,0.3,1.1,0.5c0.8-1.3,1.6-2.5,2.8-4.4c2.9,0.4,6.2,0.9,9.6,1.4
		c0,9.6,0,18.1,0,26.5c2.4,0.8,4.5,1.6,7.1,2.5c0,5.6,0,11,0,16.6c2.5,0.2,4.4,0.4,6.7,0.6c0.2,2.4,0.4,4.7,0.6,7.3
		c1,0.1,2.1,0.3,3.5,0.4c0-15.3,0-30.2,0-45.1c1.9-1.8,3.5-3.3,5.5-5.3c0-6.5,0-13.3,0-20.2c0.3,0,0.6,0,1,0c0,6.9,0,13.8,0,20.9
		c3.1,1.8,6,3.4,8.9,5.1c0.2,2.4,0.4,4.8,0.7,7.5c2,0.2,3.8,0.4,6.1,0.6c0,6.9,0,13.6,0,20.9c3.8,0,7,0,10.4,0
		c0.6,1.5,1.1,2.6,1.9,4.6c0.5-1.4,0.9-1.9,0.9-2.4c0-12.8,0-25.7,0.1-38.5c0.1-4.4-0.9-8.8,1.8-13c1.1-1.7,0.2-4.7-0.6-7.1
		c0.6-1.2,1.3-2.4,1.9-3.7c0.1-0.1,0-0.3,0-0.5c-1.5-15.8,2.2-31.1,7.1-45.8c5.5-16.3,6.2-32.8,6.8-49.5c0-0.3,0.2-0.6,0.7-1
		c-0.9,16.6,1.5,32.7,6.3,48.4c-0.9-0.9-1.9-1.8-2.8-2.6c0.8-3,0.1-5.4-3.6-7.2c-1,1.9-2,3.6-3,5.4c0.2,0.1,0.4,0.2,0.7,0.4
		c1.1-0.9,2.1-1.7,3.4-2.7c1,1.6,1.8,2.9,2.7,4.2c-1.1-0.2-2.3-0.6-3.4-0.4c-4.1,0.7-6.8,6.5-4.6,9.7c-0.3,2-0.6,4-0.8,5.7
		c2.3-2.1,4.5-4.1,7-6.3c2,2.5,3.8,4.6,5.6,6.8c-0.6-0.3-1.2-0.5-1.8-0.8c-2.7-1.6-5.3-1.7-7.8,0.4c-2.5,2.1-2.9,4.6-0.5,4.9
		c0.3-0.9,0.7-1.9,1.1-2.9c0.6,0.3,1.1,0.6,1.8,1c0.6-0.8,1.1-1.5,1.4-2c1.5,0.8,3,1.6,5,2.6c0.3,0.6,0.8,1.8,1.6,3.6
		c-9.6-4-15.7,0.5-14.6,11.1c1.9-5.7,4.3-9.8,11.3-9.4c1.3,1.7,3.4,4.5,6.2,8.2c-1.2-6-2.2-11-3.2-16.1c1.2-3.7-1.4-6-3-8.7
		c0.6-0.3,1.1-0.5,1.5-0.7c-0.1-1.6-0.2-2.9-0.3-4.2c1.3,4,3.2,7.9,3.8,12c1.7,11.3,4.4,22.5,3.5,34.1c-0.1,1.5,1.1,3,1.9,5.3
		c-1.4,1.9-2.4,4.6-0.1,8c1,1.5,0.6,3.9,0.6,5.8c0.1,5.1,0,10.3,0,14.4c4.5,0.1,9-1,12.2,0.6c3.4,1.7,5.5,6,8.5,9.6
		c5.1,0,10.5,0,16.3,0c0.2,2.9,0.3,5.3,0.5,8c1.8,0.3,3.6,0.5,6.3,0.9c0,6.7,0,13.4,0,20.2c0.6,0,1.2,0,1.8,0c0-12,0-24,0-36.2
		c1.7-0.3,2.8-0.4,4.3-0.7c0.2,2,0.4,3.8,0.6,5.1c2.8,3.6,5.4,6.8,8.3,10.5c0,3.6,0,7.5,0,11.4c0.3,0,0.6,0,0.9,0
		c0-14.3,0-28.6,0-42.9c1.8-1.5,3.3-2.8,4.7-4c2.5,0,4.8,0,8.2,0c1.5,5.8,3.1,11.7,4.7,18c0.9-0.2,2.3-0.6,3.6-0.9
		c1.4-6.4-1.3-13.1,3.4-19.3c2.3,0.3,5,0.6,8,1c0.1-1.4,0.4-3.4,0.6-5.9c3.5,0,6.9,0,11.2,0c0,8.3,0,16.6,0,24.8
		c0.6,0,1.2,0.1,1.7,0.1c0.2-1.6,0.5-3.2,0.5-4.8c0.1-10,0-20,0-30c0-5.3,1.8-8.1,6.7-9.9c4.9-1.8,10-2.1,15.5-1.3
		c0.2,3.3,0.4,6.2,0.6,9.5c2.6,0.2,5,0.4,7.4,0.7c4.2,8.9,2,18.2,2.8,27.2c2.6,1.8,5.2,3.5,8.4,5.7c0-12.4,0-24.4,0-36.8
		c7.3,0,14.1,0,21.5,0c0,8.7,0,17.2,0,25.7c0.5,0.1,1,0.2,1.5,0.3c0.4-1.3,1.1-2.5,1.2-3.8c0.7-14,1.4-28,2.1-41.9
		c1.5-33,3.1-65.9,4.5-98.9c0.2-4.9,0.4-9.7,4.7-13.1c-0.4-1.7-0.8-3.1-1.4-5.4c3.2-1.7,6.5-3.4,10.5-5.5c0-3.1,0-6.9,0-10.7
		c-0.1,0-0.1,0-0.2,0c0.3-2.6,0.9-5.2,1-7.7c0.3-9.7,0.4-19.3,0.6-29c0-1.8,0.4-3.6,0.6-5.4c0.4,0,0.8,0,1.2,0c0,14,0,28.1,0,42.1
		c0.1,0,0.2,0,0.3-0.1c-0.2,3.6-0.3,7.2-0.5,11.5c7,0,9.9,5.7,14.7,9.9c1.2,46.4,2.3,93.5,3.5,141c1.5,0,2.7,0,4.3,0
		c0-14.5,0-28.6,0-43.5c4.7,0,9.1,0,13.9,0c0-5.3,0-10,0-14.6c2.4-1.3,4.4-2.4,6.8-3.7c0-4.8,0-9.7,0-14.7c0.3,0,0.7,0,1,0
		c0,5,0,10,0,15c2.2,1.7,4.1,3,6.3,4.7c0,1.6,0,3.4,0,5.2c0.7,20.6,1.3,41.2,2,62.1c0.4,0.1,1.3,0.3,2.8,0.6c0-6,0-11.6,0-18
		c4-0.2,7.5-0.4,11.5-0.6c0-7,0-13.7,0-20.4c0.3,0,0.7-0.1,1-0.1c1.1,3.6,2.1,7.2,3.3,11.1c3.6-2.8,2.5-6.6,2.9-10
		c0.4-3.5,1.3-6.9,1.8-10.4c0.5-3.4,1-6.8,1.2-10.3c0.2-3.6,0-7.3,0.6-11.1c-0.4,13.7,1.6,26.8,9.7,39.2c0,10.4,0,21.4,0,32.5
		c0.4,0,0.8,0,1.2,0c0-13.1,0-26.1,0-39.7c2.2-0.2,3.8-0.4,5.9-0.5c0,13.7,0,26.9,0,39.1c5.5,8.2,2.6,16.8,5.3,25
		c0.9,0.1,2.3,0.2,4.1,0.3c0-3.6,0-6.7,0-9.5c7.4-5.7,8.9-6.1,20.8-5.1V355H0l2.1-9c1.2-7.2,2.4-14.2,3.9-23.2
		c-1.6-5.2-1.6-5.2,2.5-10 M266.9,249.5c-0.1-25.1-0.3-50.2-0.4-75.3c-0.5,0-0.9,0-1.4,0c0,1.6,0,3.2,0,4.7c0,14.3,0,28.6,0,42.9
		c0,7.8,0.1,15.6,0,23.5c0,1.5-0.7,2.9-1.1,4.4c-0.6-0.1-1.2-0.2-1.8-0.3c0-25,0-50.1,0-75.1c-0.5,0-1.1,0-1.6,0
		c0,25.3,0,50.7,0,76.2c1.9-0.3,4.2-0.7,6.5-1.1 M604.1,99.9c-5.7-0.9-10.8-1.8-16.6-2.7c0.4,2,0.7,3.1,0.9,4.3
		c5.3,0.6,10.2,1.1,15.3,1.7C603.9,101.9,604,101.2,604.1,99.9z M586.2,68.9c-0.1,0.3-0.1,0.7-0.2,1c5.9,1.3,11.7,2.7,17.6,4
		c0.1-0.3,0.1-0.7,0.2-1C598,71.6,592.1,70.3,586.2,68.9z M589.4,72.4c-0.1,0.3-0.1,0.5-0.2,0.8c4.8,1.2,9.7,2.3,14.5,3.5
		c0.1-0.3,0.1-0.6,0.2-0.9C599.1,74.6,594.2,73.5,589.4,72.4z M586.1,63.5c-0.2,0.3-0.3,0.7-0.5,1c4.7,1,9.3,2.1,14,3.1
		c0.1-0.3,0.1-0.6,0.2-0.9C595.2,65.6,590.7,64.6,586.1,63.5z M600.6,97.6c0-0.3,0-0.6,0.1-0.9c-4.1-0.7-8.3-1.4-12.4-2.1
		c0,0.3-0.1,0.6-0.1,0.8C592.3,96.2,596.4,96.9,600.6,97.6z M383.1,145.7c-0.7-2.2-1.2-3.7-1.6-5.3c-0.4,0-0.8,0.1-1.1,0.1
		c-0.4,1.6-0.9,3.3-1.4,5.1C380.4,145.7,381.5,145.7,383.1,145.7z M259.7,157c-0.1,0-0.2,0-0.3,0c0,4.3,0,8.5,0,12.8
		c0.1,0,0.2,0,0.3,0C259.7,165.5,259.7,161.3,259.7,157z M267.3,168.4c0.1,0.1,0.2,0.1,0.3,0.2c0-3.8,0-7.6,0-11.3
		c-0.1,0-0.2,0-0.3,0C267.3,160.9,267.3,164.6,267.3,168.4z M598.5,89.6c0-0.3,0-0.5,0-0.8c-3.3-0.5-6.6-1-9.8-1.5
		c0,0.3-0.1,0.6-0.1,0.9C591.9,88.6,595.2,89.1,598.5,89.6z"/>
	<path class="st1" d="M267,249.4c-2.3,0.4-4.5,0.8-6.5,1.1c0-25.5,0-50.9,0-76.2c0.5,0,1.1,0,1.6,0c0,25,0,50.1,0,75.1
		c0.6,0.1,1.2,0.2,1.8,0.3c0.4-1.5,1.1-2.9,1.1-4.4c0.1-7.8,0-15.6,0-23.5c0-14.3,0-28.6,0-42.9c0-1.6,0-3.2,0-4.7
		c0.5,0,0.9,0,1.4,0c0.1,25.1,0.3,50.2,0.4,75.3L267,249.4z"/>
	<path class="st1" d="M388.8,171.1c1,5,2,10,3.2,16.1c-2.8-3.7-4.9-6.4-6.2-8.2c-7-0.4-9.5,3.7-11.3,9.4c-1.1-10.6,5-15.1,14.6-11.1
		c-0.8-1.7-1.4-3-1.6-3.6c-2-1.1-3.4-1.8-5-2.6c-0.3,0.5-0.9,1.2-1.4,2c-0.7-0.4-1.2-0.7-1.8-1c-0.4,1-0.8,2-1.1,2.9
		c-2.4-0.3-2-2.8,0.5-4.9c2.5-2.1,5.1-2,7.8-0.4c0.6,0.3,1.2,0.5,1.8,0.8C388.4,170.7,388.6,170.9,388.8,171.1z"/>
	<path class="st1" d="M604.1,99.9c-0.1,1.3-0.2,2.1-0.4,3.2c-5.1-0.6-10-1.1-15.3-1.7c-0.2-1.1-0.5-2.3-0.9-4.3
		C593.4,98.1,598.5,98.9,604.1,99.9z"/>
	<path class="st1" d="M376.4,164.4c-2.2-3.2,0.5-9.1,4.6-9.7c1.1-0.2,2.3,0.3,3.4,0.4c0,0,0-0.1,0-0.1c0.9,0.9,1.9,1.8,2.8,2.6
		c0,0-0.1-0.1-0.1-0.1c0.1,1.3,0.2,2.6,0.3,4.2c-0.4,0.2-1,0.5-1.5,0.7l0.2,0.1c-0.4-1.2-0.9-2.3-1.3-3.3c-2.1,0-3.9,0-5.7,0
		c-0.9,1.8-1.8,3.6-2.6,5.3L376.4,164.4z"/>
	<path class="st1" d="M376.4,164.4l0,0.2c2.9-2.4,5.9-3.9,9.6-2l-0.2-0.1c1.6,2.7,4.2,5,3,8.7c-0.2-0.2-0.4-0.4-0.6-0.5
		c-1.8-2.2-3.5-4.3-5.6-6.8c-2.5,2.3-4.7,4.3-7,6.3C375.9,168.4,376.1,166.4,376.4,164.4z"/>
	<path class="st1" d="M586.2,68.9c5.9,1.3,11.7,2.7,17.6,4c-0.1,0.3-0.1,0.7-0.2,1c-5.9-1.3-11.7-2.7-17.6-4
		C586.1,69.6,586.2,69.3,586.2,68.9z"/>
	<path class="st1" d="M384.4,155.1c-0.9-1.3-1.7-2.7-2.7-4.2c-1.2,1-2.3,1.9-3.4,2.7c-0.2-0.1-0.4-0.2-0.7-0.4c1-1.8,2-3.6,3-5.4
		C384.5,149.6,385.2,152,384.4,155.1C384.4,155,384.4,155.1,384.4,155.1z"/>
	<path class="st1" d="M589.4,72.4c4.8,1.1,9.7,2.2,14.5,3.3c-0.1,0.3-0.1,0.6-0.2,0.9c-4.8-1.2-9.7-2.3-14.5-3.5
		C589.3,72.9,589.3,72.7,589.4,72.4z"/>
	<path class="st1" d="M586.1,63.5c4.6,1.1,9.2,2.1,13.7,3.2c-0.1,0.3-0.1,0.6-0.2,0.9c-4.7-1-9.3-2.1-14-3.1
		C585.8,64.2,585.9,63.8,586.1,63.5z"/>
	<path class="st1" d="M600.6,97.6c-4.2-0.7-8.3-1.5-12.5-2.2c0-0.3,0.1-0.6,0.1-0.8c4.1,0.7,8.3,1.4,12.4,2.1
		C600.6,97,600.6,97.3,600.6,97.6z"/>
	<path class="st1" d="M383.1,145.7c-1.7,0-2.7,0-4.2,0c0.5-1.8,0.9-3.5,1.4-5.1c0.4,0,0.8-0.1,1.1-0.1
		C382,141.9,382.4,143.5,383.1,145.7z"/>
	<path class="st1" d="M259.7,157c0,4.3,0,8.5,0,12.8c-0.1,0-0.2,0-0.3,0c0-4.3,0-8.5,0-12.8C259.5,157,259.6,157,259.7,157z"/>
	<path class="st1" d="M267.3,168.4c0-3.7,0-7.4,0-11.2c0.1,0,0.2,0,0.3,0c0,3.8,0,7.6,0,11.3C267.5,168.5,267.4,168.4,267.3,168.4z"
		/>
	<path class="st1" d="M598.5,89.6c-3.3-0.5-6.6-1-10-1.5c0-0.3,0.1-0.6,0.1-0.9c3.3,0.5,6.6,1,9.8,1.5
		C598.5,89,598.5,89.3,598.5,89.6z"/>
	<path d="M386,162.6c-3.7-1.9-6.8-0.4-9.6,2c0.9-1.7,1.7-3.5,2.6-5.3c1.9,0,3.7,0,5.7,0C385.2,160.2,385.6,161.4,386,162.6z"/>
	<path class="st2" d="M268,151c3.4,4.1,4.2,8.9,4,14c-0.1,2.2,0,4.3,0,6.5"/>
	<path class="st2" d="M635.5,131.5c-0.2,6.3-0.3,12.7-0.5,19"/>
	<path class="st2" d="M263.5,149c0,33,0,66,0,99"/>
	<path class="st2" d="M333.5,212.5c0.1,4.8,0.2,9.7,0.3,14.5c0.1,3.3,0.1,6.7,0.2,10"/>
	<path class="st2" d="M670.5,148c-0.3,5.8-0.9,11.7-0.9,17.5c0,4.7,0.6,9.3,0.9,14"/>
	<path class="st2" d="M260.5,88c-0.2,13.2-0.4,26.3-0.5,39.5c0,1.5,0.3,3,0.5,4.5"/>
	<path class="st2" d="M684,182.5c0,11.8,0.1,23.7,0,35.5c0,3.9,0.3,8-3,11"/>
	<path class="st2" d="M591.5,1c-0.3,17.8-0.7,35.7-1,53.5c0,1.7,0.3,3.3,0.5,5"/>
	<path class="st3" d="M481,318"/>
	<path class="st2" d="M380.5,108c0,8.8,0,17.7,0,26.5c0,2.2,0,4.2,1.8,6.2c1.2,1.3,0.9,4.1,1.5,6.9c-3.8-0.9-5.4,0.5-6.4,3.4
		c-2.5,8-5.1,15.9-4.5,24.5c0.2,2.5-0.5,5.1-1.5,7.5c-1.9,4.7-1.2,8.6,2.6,12"/>
	<path class="st2" d="M681,312.5c1.4,5.4,0.5,10.6-0.2,16c-0.7,5,1.1,10.3,1.7,15.5"/>
	<path class="st2" d="M697,312.5c-1.2,4.2-2.3,8.3-3.5,12.5"/>
	<path class="st2" d="M605,75c-5-1-10-2.1-15-2.9c-1.3-0.2-2.7,0.3-4,0.4"/>
	<path class="st2" d="M712.5,318.5"/>
	<path class="st2" d="M659.5,178c1.1,5.4,0,11.2,3.5,16"/>
	<path class="st2" d="M386,162.5c1.3,2,3.3,3.8,3.9,6c1.4,5.7,2.2,11.6,3.1,17.5c0.1,0.6-0.6,1.3-0.9,2"/>
	<path class="st2" d="M396.5,208.5c-2.7,0.3-5.3,0.7-8,1"/>
	<path class="st2" d="M380,140c-0.5,2.7-1,5.3-1.5,8"/>
	<path class="st2" d="M383,148c1,2.2,2.1,4.4,3.1,6.6c0.7,3.1,1.3,6,1.9,8.9"/>
	<path class="st2" d="M388.5,177c-2.6-3.2-5.4-3.7-9.1-1.6c-1.7,0.9-3.9,0.8-5.9,1.1"/>
	<path class="st2" d="M679.5,330c-2-0.2-4-0.3-6-0.5"/>
	<path class="st2" d="M382.5,164c-1.2,4.8-5.3,7-9,9.5"/>
	<path class="st2" d="M383.5,153.5c-2,0.5-4,1-6,1.5"/>
	<path class="st2" d="M385,161.5c-1-0.5-2-1.1-3.4-1.9c-1.4,1.5-2.7,2.9-4.1,4.4"/>
	<path class="st2" d="M382.5,167c1.7,1,3.3,2,5,3"/>
</g>
</svg>
